<svg width="39" height="39" viewBox="0 0 39 39" fill="none" xmlns="http://www.w3.org/2000/svg">
<path fill-rule="evenodd" clip-rule="evenodd" d="M26.1294 4.55536C29.6237 4.55538 32.3506 5.35553 34.3101 6.95575C36.302 8.55593 37.2983 10.7273 37.2983 13.4704C37.2983 15.4951 36.7597 17.1774 35.6821 18.5163C34.6372 19.8552 33.2326 20.7857 31.4692 21.3083C33.4612 21.7329 35.0617 22.7291 36.27 24.2966C37.4783 25.8315 38.0825 27.5955 38.0825 29.5876C38.0825 32.4614 37.0692 34.7478 35.0444 36.446C33.0524 38.1112 30.2604 38.944 26.6685 38.944H10.6489V28.9284H19.0259V32.1833H25.1987C26.6029 32.1833 27.681 31.8731 28.4321 31.2526C29.2156 30.5995 29.6069 29.6687 29.6069 28.4606C29.6069 27.2523 29.1988 26.3056 28.3823 25.6198C27.5985 24.934 26.5044 24.5905 25.1001 24.5905H21.4858V18.4675H24.5122C25.8838 18.4675 26.9295 18.1735 27.6479 17.5856C28.3991 16.9651 28.7749 16.067 28.7749 14.8913C28.7749 13.7156 28.3991 12.8175 27.6479 12.197C26.9295 11.5765 25.8838 11.2663 24.5122 11.2663H21.4858V4.55536H26.1294Z" fill="url(#paint0_linear_7_18)"/>
<rect x="16.4097" y="24.3602" width="4.06006" height="4.56757" fill="#003DC5"/>
<rect x="12.3491" y="24.8677" width="4.06006" height="4.06006" fill="#003BC8"/>
<rect x="8.28906" y="24.8677" width="4.06006" height="4.06006" fill="#002EBF"/>
<rect x="6.7666" y="28.928" width="4.06006" height="7.61262" fill="#002EBF"/>
<rect x="17.4248" y="20.8079" width="4.06006" height="3.55256" fill="#007FE7"/>
<rect x="17.4248" y="16.7477" width="5.58259" height="4.06006" fill="#02A1F3"/>
<rect x="13.3647" y="20.8079" width="4.06006" height="4.06006" fill="#003BC8"/>
<rect x="13.3647" y="16.7477" width="4.06006" height="4.06006" fill="#002EBF"/>
<rect x="9.30469" y="16.7477" width="4.06006" height="4.06006" fill="#007FE7"/>
<rect x="5.24414" y="14.7178" width="4.06006" height="4.06006" fill="#02A1F3"/>
<rect x="6.08984" y="10.6575" width="3.21422" height="4.06006" fill="#003DC5"/>
<rect x="9.30469" y="12.6876" width="4.06006" height="4.06006" fill="#002EBF"/>
<rect x="13.3647" y="12.6876" width="4.06006" height="4.06006" fill="#02A1F3"/>
<rect x="17.4248" y="12.6876" width="3.04505" height="4.06006" fill="#003BC8"/>
<rect x="9.30469" y="8.62762" width="3.04505" height="4.06006" fill="#02D0F1"/>
<rect x="1.18408" y="4.56738" width="4.06006" height="4.06006" fill="#02D0F1"/>
<rect x="15.394" y="8.62762" width="4.06006" height="4.06006" fill="#007FE7"/>
<rect x="15.394" y="8.62762" width="4.06006" height="4.06006" fill="#007FE7"/>
<rect x="7.27344" y="1.18408" width="4.06006" height="4.06006" fill="#02D0F1"/>
<rect x="13.3647" y="4.56738" width="2.53754" height="2.53754" fill="#02A1F3"/>
<rect x="2.02979" y="18.2701" width="2.53754" height="2.53754" fill="#007FE7"/>
<rect x="4.56836" y="22.3303" width="2.53754" height="2.53754" fill="#002EBF"/>
<rect x="2.70752" y="27.7439" width="2.53754" height="2.53754" fill="#002EBF"/>
<rect x="0.676758" y="33.4955" width="3.89089" height="3.89089" fill="#002EBF"/>
<rect y="24.3602" width="2.53754" height="2.53754" fill="#002EBF"/>
<rect x="2.70752" width="2.53754" height="2.53754" fill="#02D0F1"/>
<defs>
<linearGradient id="paint0_linear_7_18" x1="24.3657" y1="4.55536" x2="24.3657" y2="38.944" gradientUnits="userSpaceOnUse">
<stop stop-color="#02D0F1"/>
<stop offset="1" stop-color="#002EBF"/>
</linearGradient>
</defs>
</svg>
