<svg width="1861" height="553" viewBox="0 0 1861 553" fill="none" xmlns="http://www.w3.org/2000/svg">
<path d="M424.099 439V194.961H494.862V439H424.099ZM459.481 160.94C446.477 160.94 435.893 157.16 427.728 149.6C419.563 142.04 415.481 132.666 415.481 121.477C415.481 110.288 419.563 100.913 427.728 93.3533C435.893 85.7932 446.477 82.0132 459.481 82.0132C472.484 82.0132 483.068 85.642 491.233 92.8997C499.398 99.855 503.48 108.927 503.48 120.116C503.48 131.91 499.398 141.738 491.233 149.6C483.371 157.16 472.786 160.94 459.481 160.94ZM660.328 442.629C631.6 442.629 609.222 435.371 593.195 420.856C577.167 406.038 569.154 384.114 569.154 355.083V140.982H639.916V354.176C639.916 364.458 642.638 372.471 648.081 378.217C653.524 383.66 660.933 386.382 670.308 386.382C681.497 386.382 691.022 383.358 698.885 377.31L717.936 427.206C710.678 432.347 701.909 436.278 691.627 439C681.648 441.419 671.215 442.629 660.328 442.629ZM531.505 254.837V200.404H700.699V254.837H531.505ZM784.074 530.628C771.373 530.628 758.823 528.663 746.425 524.731C734.026 520.8 723.896 515.357 716.033 508.402L741.889 458.052C747.332 462.89 753.531 466.67 760.486 469.392C767.744 472.113 774.851 473.474 781.806 473.474C791.785 473.474 799.648 471.055 805.393 466.216C811.441 461.68 816.885 453.969 821.723 443.083L834.424 413.145L839.867 405.433L927.413 194.961H995.454L885.228 453.969C877.365 473.625 868.293 489.048 858.011 500.237C848.032 511.426 836.843 519.288 824.445 523.824C812.349 528.36 798.892 530.628 784.074 530.628ZM825.805 448.526L716.94 194.961H789.971L874.341 399.083L825.805 448.526Z" fill="white"/>
<path d="M1029.32 439V121.477H1102.8V379.124H1262.02V439H1029.32ZM1449.55 439V391.372L1445.01 380.939V295.661C1445.01 280.541 1440.32 268.747 1430.95 260.28C1421.88 251.813 1407.82 247.579 1388.76 247.579C1375.76 247.579 1362.91 249.696 1350.21 253.929C1337.81 257.861 1327.23 263.304 1318.46 270.259L1293.05 220.816C1306.36 211.442 1322.39 204.184 1341.14 199.043C1359.88 193.902 1378.94 191.332 1398.29 191.332C1435.49 191.332 1464.37 200.102 1484.93 217.641C1505.49 235.18 1515.77 262.548 1515.77 299.743V439H1449.55ZM1375.16 442.629C1356.1 442.629 1339.78 439.454 1326.17 433.103C1312.56 426.45 1302.13 417.529 1294.87 406.341C1287.61 395.152 1283.98 382.602 1283.98 368.691C1283.98 354.176 1287.46 341.475 1294.41 330.589C1301.67 319.702 1313.01 311.235 1328.43 305.187C1343.86 298.836 1363.97 295.661 1388.76 295.661H1453.63V336.939H1396.48C1379.84 336.939 1368.35 339.661 1362 345.104C1355.95 350.547 1352.93 357.351 1352.93 365.516C1352.93 374.588 1356.41 381.846 1363.36 387.289C1370.62 392.43 1380.45 395 1392.85 395C1404.64 395 1415.22 392.279 1424.6 386.836C1433.97 381.09 1440.78 372.774 1445.01 361.887L1455.9 394.547C1450.76 410.272 1441.38 422.217 1427.77 430.382C1414.17 438.547 1396.63 442.629 1375.16 442.629ZM1724.06 442.629C1702.59 442.629 1684.15 438.093 1668.72 429.021C1653.3 419.949 1641.51 406.189 1633.34 387.743C1625.18 368.994 1621.1 345.406 1621.1 316.98C1621.1 288.252 1625.33 264.665 1633.8 246.218C1642.57 227.772 1654.66 214.012 1670.08 204.94C1685.51 195.868 1703.5 191.332 1724.06 191.332C1747.05 191.332 1767.61 196.473 1785.75 206.754C1804.2 217.036 1818.72 231.552 1829.3 250.301C1840.19 269.05 1845.63 291.276 1845.63 316.98C1845.63 342.382 1840.19 364.458 1829.3 383.207C1818.72 401.956 1804.2 416.622 1785.75 427.206C1767.61 437.488 1747.05 442.629 1724.06 442.629ZM1579.82 439V102.425H1650.58V244.404L1646.04 316.527L1647.4 389.104V439H1579.82ZM1711.82 384.568C1723.61 384.568 1734.04 381.846 1743.11 376.403C1752.49 370.959 1759.9 363.248 1765.34 353.269C1771.09 342.987 1773.96 330.891 1773.96 316.98C1773.96 302.767 1771.09 290.671 1765.34 280.692C1759.9 270.713 1752.49 263.001 1743.11 257.558C1734.04 252.115 1723.61 249.393 1711.82 249.393C1700.02 249.393 1689.44 252.115 1680.06 257.558C1670.69 263.001 1663.28 270.713 1657.84 280.692C1652.39 290.671 1649.67 302.767 1649.67 316.98C1649.67 330.891 1652.39 342.987 1657.84 353.269C1663.28 363.248 1670.69 370.959 1680.06 376.403C1689.44 381.846 1700.02 384.568 1711.82 384.568Z" fill="#007FE7"/>
<path fill-rule="evenodd" clip-rule="evenodd" d="M269.273 88.9524C305.283 88.9524 333.385 97.1979 353.578 113.689C374.107 130.179 384.372 152.56 384.372 180.829C384.372 201.695 378.819 219.028 367.713 232.826C356.943 246.625 342.472 256.217 324.298 261.602C344.827 265.977 361.318 276.241 373.771 292.396C386.223 308.213 392.449 326.387 392.449 346.916C392.449 376.533 382.017 400.092 361.151 417.592C340.621 434.756 311.846 443.337 274.825 443.337H109.748V341.602H196.073V373.672H259.681C274.152 373.672 285.259 370.475 292.999 364.08C301.076 357.349 305.115 347.758 305.115 335.306C305.115 322.854 300.908 313.093 292.494 306.026C284.417 298.958 273.143 295.424 258.671 295.424H221.403V232.322H252.613C266.748 232.322 277.518 229.292 284.922 223.235C292.662 216.84 296.533 207.585 296.533 195.47C296.533 183.354 292.663 174.099 284.922 167.704C277.518 161.31 266.748 158.113 252.613 158.113H221.403V88.9524H269.273Z" fill="url(#paint0_linear_5_970)"/>
<rect x="169.103" y="294.533" width="41.8399" height="47.0699" fill="#003DC5"/>
<rect x="127.263" y="299.762" width="41.8399" height="41.8399" fill="#003BC8"/>
<rect x="85.4227" y="299.762" width="41.8399" height="41.8399" fill="#002EBF"/>
<rect x="69.7332" y="341.602" width="41.8399" height="78.4498" fill="#002EBF"/>
<rect x="179.563" y="257.923" width="41.8399" height="36.6099" fill="#007FE7"/>
<rect x="179.563" y="216.083" width="57.5298" height="41.8399" fill="#02A1F3"/>
<rect x="137.723" y="257.923" width="41.8399" height="41.8399" fill="#003BC8"/>
<rect x="137.723" y="216.083" width="41.8399" height="41.8399" fill="#002EBF"/>
<rect x="95.8834" y="216.083" width="41.8399" height="41.8399" fill="#007FE7"/>
<rect x="54.0436" y="195.163" width="41.8399" height="41.8399" fill="#02A1F3"/>
<rect x="62.7598" y="153.323" width="33.1232" height="41.8399" fill="#003DC5"/>
<rect x="95.8834" y="174.243" width="41.8399" height="41.8399" fill="#002EBF"/>
<rect x="137.723" y="174.243" width="41.8399" height="41.8399" fill="#02A1F3"/>
<rect x="179.563" y="174.243" width="31.3799" height="41.8399" fill="#003BC8"/>
<rect x="95.8834" y="132.404" width="31.3799" height="41.8399" fill="#02D0F1"/>
<rect x="12.2037" y="90.5629" width="41.8399" height="41.8399" fill="#02D0F1"/>
<rect x="158.643" y="132.404" width="41.8399" height="41.8399" fill="#007FE7"/>
<rect x="158.643" y="132.404" width="41.8399" height="41.8399" fill="#007FE7"/>
<rect x="74.9635" y="55.6963" width="41.8399" height="41.8399" fill="#02D0F1"/>
<rect x="137.723" y="90.5629" width="26.1499" height="26.1499" fill="#02A1F3"/>
<rect x="20.9199" y="231.773" width="26.1499" height="26.1499" fill="#007FE7"/>
<rect x="47.0702" y="273.613" width="26.1499" height="26.1499" fill="#002EBF"/>
<rect x="27.8933" y="329.399" width="26.1499" height="26.1499" fill="#002EBF"/>
<rect x="6.97327" y="388.672" width="40.0966" height="40.0966" fill="#002EBF"/>
<rect y="294.533" width="26.1499" height="26.1499" fill="#002EBF"/>
<rect x="27.8933" y="43.4934" width="26.1499" height="26.1499" fill="#02D0F1"/>
<defs>
<linearGradient id="paint0_linear_5_970" x1="251.099" y1="88.9524" x2="251.099" y2="443.337" gradientUnits="userSpaceOnUse">
<stop stop-color="#02D0F1"/>
<stop offset="1" stop-color="#002EBF"/>
</linearGradient>
</defs>
</svg>
